
<svg version="1.0" xmlns="http://www.w3.org/2000/svg"
 width="1794.000000pt" height="1136.000000pt" viewBox="0 0 1794.000000 1136.000000"
 preserveAspectRatio="xMidYMid meet">

 <defs>
    <linearGradient id="gradient" x1="0%" y1="0%" x2="100%" y2="100%">
      <stop offset="0%" style="stop-color:#8a2be2;stop-opacity:1" />
      <stop offset="100%" style="stop-color:#4b0082;stop-opacity:1" />
    </linearGradient>
  </defs>

<g transform="translate(0.000000,1136.000000) scale(0.100000,-0.100000)"
fill="url(#gradient)" stroke="none">
<path d="M12845 10303 c-202 -24 -367 -103 -492 -237 -340 -363 -252 -949 179
-1190 198 -110 450 -126 658 -43 139 57 273 167 355 292 141 216 162 496 54
733 -85 188 -262 347 -453 408 -67 21 -218 46 -256 43 -8 -1 -28 -4 -45 -6z"/>
<path d="M15152 10300 c-197 -27 -391 -138 -507 -291 -59 -79 -119 -204 -141
-295 -22 -91 -22 -257 0 -349 9 -38 35 -107 56 -152 195 -401 675 -550 1070
-332 100 56 223 179 279 279 118 213 133 457 42 678 -70 170 -216 320 -384
398 -118 53 -292 80 -415 64z"/>
<path d="M5300 8084 c-76 -8 -177 -27 -225 -41 -83 -25 -106 -34 -213 -86
l-103 -50 -107 35 c-59 20 -138 43 -177 53 -38 9 -86 20 -105 25 -56 15 -235
39 -367 50 -479 40 -1009 -54 -1408 -248 -297 -145 -607 -386 -814 -632 -327
-389 -524 -861 -591 -1420 -54 -444 -26 -835 82 -1155 69 -205 140 -339 265
-500 313 -403 705 -635 1185 -700 48 -6 90 -13 93 -16 2 -3 -67 -78 -155 -167
-220 -223 -352 -403 -459 -627 -135 -281 -187 -566 -162 -884 29 -373 160
-636 406 -819 218 -161 490 -272 740 -301 236 -28 533 3 770 81 259 85 487
227 665 415 212 224 324 416 450 773 39 109 93 354 116 524 26 198 65 498 79
611 7 61 25 200 39 310 36 275 49 371 96 740 55 436 54 427 80 444 30 20 423
315 490 367 30 24 98 77 150 119 52 41 100 75 106 75 6 0 19 -37 29 -82 103
-486 423 -947 845 -1220 254 -164 499 -255 861 -320 111 -20 157 -22 454 -23
332 0 353 2 555 42 257 52 527 161 758 307 315 199 618 503 805 806 125 204
249 508 306 755 73 311 105 680 83 958 -30 376 -118 616 -361 981 -40 61 -265
290 -354 361 -266 212 -571 353 -892 411 -124 22 -349 43 -460 43 -164 1 -486
-31 -625 -60 -278 -59 -476 -128 -700 -246 -230 -121 -402 -247 -599 -438
-147 -142 -253 -276 -353 -445 -190 -319 -276 -569 -344 -1009 -3 -18 -17 -45
-32 -58 -48 -45 -325 -287 -376 -328 -28 -22 -93 -75 -145 -117 -53 -43 -99
-78 -103 -78 -13 0 -9 65 11 225 11 83 22 179 26 215 6 67 20 181 56 450 11
85 26 207 34 270 8 63 19 151 25 195 15 112 38 288 56 435 9 69 19 154 24 190
5 36 16 119 24 185 8 66 27 210 41 320 14 110 25 205 25 211 0 16 -121 54
-225 69 -96 14 -317 26 -375 19z m-1075 -773 c103 -27 202 -60 238 -78 31 -15
30 0 6 -203 -6 -47 -15 -121 -19 -165 -5 -44 -16 -138 -25 -210 -8 -71 -20
-170 -25 -220 -6 -49 -13 -103 -15 -120 -3 -16 -10 -70 -15 -120 -5 -49 -16
-148 -25 -220 -8 -71 -20 -168 -25 -215 -5 -47 -17 -143 -25 -215 -9 -71 -20
-170 -25 -219 -18 -164 -30 -216 -72 -314 -168 -391 -396 -630 -678 -708 -48
-14 -100 -18 -200 -18 -119 0 -145 3 -220 27 -109 34 -196 86 -283 167 -96 89
-143 157 -198 280 -104 235 -128 443 -94 806 27 284 93 621 159 809 128 366
353 660 626 817 102 59 269 115 420 142 14 2 113 3 220 1 160 -2 210 -7 275
-24z m4645 -18 c236 -57 402 -206 530 -476 124 -259 180 -553 180 -940 0 -304
-36 -526 -128 -783 -91 -253 -227 -484 -378 -640 -224 -231 -495 -316 -794
-250 -254 56 -439 215 -570 491 -99 209 -144 439 -144 750 -2 434 83 851 238
1168 206 423 452 648 761 696 77 12 221 5 305 -16z m-4819 -3804 c-6 -41 -17
-139 -26 -219 -8 -80 -20 -176 -25 -215 -5 -38 -16 -135 -25 -215 -21 -188
-43 -386 -55 -480 -5 -41 -12 -104 -15 -140 -41 -441 -215 -700 -508 -755 -43
-8 -98 -15 -122 -15 -217 0 -424 164 -486 385 -21 74 -18 321 5 405 70 263
203 484 430 719 102 104 315 282 481 401 141 100 339 220 348 211 5 -5 4 -42
-2 -82z"/>
<path d="M12870 8060 c-296 -28 -522 -122 -683 -285 -55 -56 -59 -72 -77 -245
-7 -69 -16 -152 -20 -185 -4 -33 -12 -107 -19 -165 -6 -58 -15 -136 -21 -175
-5 -38 -16 -133 -25 -210 -8 -77 -19 -169 -25 -205 -5 -36 -14 -112 -21 -170
-6 -58 -15 -139 -20 -180 -16 -142 -40 -345 -49 -425 -5 -44 -16 -136 -25
-205 -8 -69 -20 -168 -25 -220 -5 -52 -14 -129 -20 -170 -5 -41 -17 -136 -25
-210 -9 -74 -20 -169 -25 -210 -5 -41 -17 -136 -25 -210 -23 -202 -35 -303
-40 -326 -3 -13 -34 -41 -77 -70 -307 -204 -529 -385 -778 -634 -280 -280
-468 -535 -607 -827 -29 -61 -53 -114 -53 -118 0 -4 -6 -21 -14 -38 -32 -72
-67 -189 -105 -347 -33 -135 -52 -382 -45 -560 18 -403 132 -692 342 -866 77
-64 203 -142 296 -184 144 -66 372 -112 536 -109 176 2 448 46 565 90 332 126
557 331 719 657 105 209 199 552 241 880 56 430 62 471 79 607 8 66 22 174 31
240 9 66 20 152 25 190 5 39 16 126 25 195 9 69 20 157 25 195 5 39 16 124 25
190 8 66 20 154 25 195 5 41 16 129 25 195 17 127 40 303 55 420 20 167 30
244 40 310 5 39 16 126 25 195 8 69 19 152 25 185 5 33 12 87 15 120 3 33 10
89 15 125 5 36 17 121 25 190 9 69 20 157 25 195 5 39 16 126 25 195 23 185
44 346 55 425 5 39 16 126 25 195 8 69 20 157 25 195 6 39 15 106 20 150 10
87 44 352 85 670 14 110 28 220 32 245 5 44 4 45 -28 57 -110 39 -411 61 -599
43z m-1240 -4586 c0 -21 -73 -617 -90 -734 -5 -36 -17 -119 -25 -185 -9 -66
-22 -167 -30 -225 -8 -58 -21 -159 -30 -225 -37 -285 -71 -427 -130 -550 -93
-194 -232 -265 -399 -206 -110 39 -191 130 -237 269 -43 131 -41 394 6 595 56
242 197 520 385 758 118 150 499 518 538 519 6 0 12 -7 12 -16z"/>
<path d="M15055 8060 c-332 -32 -616 -151 -719 -299 -21 -29 -29 -60 -41 -156
-8 -66 -19 -154 -25 -195 -5 -41 -12 -102 -15 -135 -3 -33 -10 -89 -15 -125
-5 -36 -16 -126 -25 -200 -8 -74 -20 -171 -25 -215 -6 -44 -17 -136 -25 -205
-8 -69 -17 -145 -20 -170 -20 -164 -46 -385 -70 -590 -9 -74 -20 -169 -25
-210 -5 -41 -16 -133 -24 -205 -19 -161 -42 -352 -56 -470 -41 -327 -32 -543
32 -745 115 -365 377 -607 758 -699 317 -77 675 -64 967 35 449 153 860 593
1099 1176 48 117 113 307 135 396 15 61 10 82 -43 169 -79 131 -292 393 -320
393 -4 0 -12 -19 -19 -42 -19 -74 -116 -360 -144 -427 -101 -244 -277 -523
-415 -661 -143 -142 -247 -192 -405 -194 -137 -1 -199 19 -278 93 -48 46 -73
112 -88 242 -14 121 -7 240 21 377 11 53 35 223 54 377 20 154 60 474 90 710
30 237 61 493 70 570 9 77 23 190 31 250 8 61 26 200 40 310 14 110 32 252 40
315 9 63 20 149 25 190 5 41 14 107 19 145 17 113 15 142 -11 148 -195 46
-405 64 -573 47z"/>
</g>
</svg>
